#!OML:ASF E:\Style3\Style3.ASF
:FULLY-SPECIFIED
:DEGREES
3121
root -1.96471 16.9797 -0.0939789 -1053.35 98.8497 -1082.81
lowerback 29.9808 0.573432 -0.910547
upperback 6.77644 1.36066 2.1211
thorax -8.9213 0.935592 2.3812
lowerneck -4.80509 -2.18597 -2.43337
upperneck -18.2408 -1.17105 8.03505
head -4.58132 -0.523198 2.91414
rclavicle 7.55382e-015 -7.95139e-015
rhumerus -62.1128 42.6142 -91.861
rradius 125.282
rwrist -51.3856
rhand 42.432 8.00981
rfingers 7.12502
rthumb 64.3779 -0.169874
lclavicle 7.55382e-015 -7.95139e-015
lhumerus -21.9447 -10.8558 -325.351
lradius 23.1272
lwrist 333.92
lhand -13.449 17.6053
lfingers 7.12502
lthumb 12.6603 47.2016
rfemur -60.504 -9.77313 14.3977
rtibia 51.085
rfoot -7.65794 -3.4051
rtoes -30.7678
lfemur -56.4395 -0.270285 -18.7062
ltibia 39.7038
lfoot -11.5022 -0.302668
ltoes -18.6434
3122
root -1.9753 16.9683 -0.0758415 -1053.08 98.1779 -1082.52
lowerback 30.1947 0.42829 -0.79701
upperback 6.7612 1.19064 1.96712
thorax -9.02854 0.852215 2.20304
lowerneck -4.79187 -2.05347 -2.34802
upperneck -18.263 -1.01253 7.87553
head -4.60233 -0.443968 2.84688
rclavicle 2.10712e-014 5.1684e-015
rhumerus -62.0478 42.2776 -91.9302
rradius 125.291
rwrist -51.4135
rhand 42.7206 7.9233
rfingers 7.12502
rthumb 64.6084 0.107704
lclavicle 2.10712e-014 5.1684e-015
lhumerus -19.4735 -12.8844 -326.865
lradius 22.7053
lwrist 333.739
lhand -14.0585 17.2958
lfingers 7.12502
lthumb 12.0727 46.9276
rfemur -60.5157 -9.29948 14.3634
rtibia 50.8539
rfoot -7.88792 -3.50561
rtoes -31.7942
lfemur -56.5618 0.296385 -18.852
ltibia 40.0434
lfoot -11.666 -0.241039
ltoes -18.5067
3123
root -1.98875 16.9533 -0.0535627 -1052.4 97.5031 -1081.81
lowerback 30.4058 0.289415 -0.772336
upperback 6.75285 1.004 1.82665
thorax -9.1283 0.763179 2.09848
lowerneck -4.75738 -1.85148 -2.09888
upperneck -18.3019 -0.775866 7.57932
head -4.63916 -0.329947 2.70755
rclavicle -1.98785e-015 6.16232e-015
rhumerus -61.9122 42.0451 -92.0374
rradius 125.258
rwrist -51.4981
rhand 43.1031 7.74464
rfingers 7.12502
rthumb 64.9122 0.422204
lclavicle -1.98785e-015 6.16232e-015
lhumerus -16.9623 -14.5121 -328.582
lradius 22.3449
lwrist 333.792
lhand -12.9258 17.0533
lfingers 7.12502
lthumb 13.1647 46.6177
rfemur -60.541 -8.75081 14.3798
rtibia 50.561
rfoot -8.1371 -3.61173
rtoes -32.7397
lfemur -56.7943 0.891442 -18.9146
ltibia 40.4125
lfoot -11.7768 -0.213464
ltoes -17.9543
3124
root -2.00043 16.9462 -0.0312072 -1051.87 96.9165 -1081.25
lowerback 30.6318 0.109537 -0.74138
upperback 6.73379 0.767633 1.68256
thorax -9.2461 0.65144 2.00532
lowerneck -4.76785 -1.60386 -1.8567
upperneck -18.2737 -0.472039 7.33298
head -4.6491 -0.182785 2.58203
rclavicle 1.07344e-014 2.5842e-015
rhumerus -61.9063 41.904 -92.2887
rradius 125.211
rwrist -51.5007
rhand 43.3267 7.82654
rfingers 7.12502
rthumb 65.0888 0.798204
lclavicle 1.07344e-014 2.5842e-015
lhumerus -14.4568 -15.0971 -330.444
lradius 21.9744
lwrist 333.159
lhand -11.6755 16.7342
lfingers 7.12502
lthumb 14.3696 46.2168
rfemur -60.4535 -8.27186 14.3428
rtibia 50.2204
rfoot -8.67853 -3.50395
rtoes -31.0053
lfemur -56.9819 1.44323 -19.001
ltibia 40.7682
lfoot -11.8357 -0.237042
ltoes -17.8758
3125
root -2.00721 16.9379 -0.00968195 -1051.73 96.4583 -1081.1
lowerback 30.7367 -0.134918 -0.647861
upperback 6.72938 0.468539 1.53198
thorax -9.28737 0.50911 1.89244
lowerneck -4.85154 -1.36394 -1.74682
upperneck -18.2 -0.160249 7.22175
head -4.62959 -0.0271376 2.52006
rclavicle -1.74931e-014 -2.24627e-014
rhumerus -61.9424 41.7582 -92.5981
rradius 125.152
rwrist -51.4334
rhand 43.6514 7.70433
rfingers 7.12502
rthumb 65.344 1.11081
lclavicle -1.74931e-014 -2.24627e-014
lhumerus -12.0131 -14.6467 -332.303
lradius 21.4922
lwrist 331.559
lhand -10.4965 16.4393
lfingers 7.12502
lthumb 15.5055 45.8376
rfemur -60.3006 -7.94657 14.3268
rtibia 49.8417
rfoot -9.32667 -3.43807
rtoes -29.5284
lfemur -57.0634 1.90587 -19.1318
ltibia 41.086
lfoot -11.9953 -0.287775
ltoes -18.1666
3126
root -2.01494 16.9252 0.0145346 -1051.73 96.0189 -1081.06
lowerback 30.858 -0.339912 -0.594296
upperback 6.73068 0.212133 1.41363
thorax -9.33368 0.388256 1.82385
lowerneck -4.96694 -1.15302 -1.7954
upperneck -18.0855 0.121485 7.20324
head -4.58861 0.120002 2.51431
rclavicle 1.35174e-014 1.72943e-014
rhumerus -61.968 41.5579 -92.776
rradius 125.125
rwrist -51.3846
rhand 44.2755 6.76414
rfingers 7.12502
rthumb 65.8302 1.0329
lclavicle 1.35174e-014 1.72943e-014
lhumerus -9.42155 -14.2756 -334.091
lradius 20.9007
lwrist 330.044
lhand -9.65577 16.225
lfingers 7.12502
lthumb 16.3151 45.5587
rfemur -60.0963 -7.67573 14.3825
rtibia 49.4092
rfoot -9.95465 -3.58481
rtoes -29.3978
lfemur -57.1525 2.36665 -19.2754
ltibia 41.4067
lfoot -12.1635 -0.33097
ltoes -18.4158
3127
root -2.02593 16.9104 0.0397102 -1051.44 95.5787 -1080.74
lowerback 30.9679 -0.523057 -0.526642
upperback 6.73963 -0.0110898 1.30227
thorax -9.36831 0.282593 1.74288
lowerneck -5.0238 -0.967637 -1.82464
upperneck -18.023 0.363298 7.13809
head -4.57186 0.246316 2.49253
rclavicle 1.44119e-014 1.48095e-014
rhumerus -61.9155 41.2833 -92.8317
rradius 125.089
rwrist -51.4029
rhand 44.9144 6.05647
rfingers 7.12502
rthumb 66.3215 1.24572
lclavicle 1.44119e-014 1.48095e-014
lhumerus -6.69959 -13.7041 -335.858
lradius 20.2357
lwrist 328.184
lhand -9.14142 16.1218
lfingers 7.12502
lthumb 16.8103 45.4141
rfemur -59.8884 -7.38582 14.4851
rtibia 48.9346
rfoot -10.7002 -3.83089
rtoes -29.0494
lfemur -57.3449 2.8189 -19.3663
ltibia 41.7664
lfoot -12.2932 -0.399447
ltoes -18.3217
3128
root -2.03745 16.8917 0.0679236 -1050.97 95.1491 -1080.19
lowerback 31.1683 -0.691814 -0.527905
upperback 6.74385 -0.233517 1.20759
thorax -9.45222 0.180113 1.72188
lowerneck -5.06836 -0.781679 -1.83107
upperneck -17.9762 0.610673 7.0961
head -4.56214 0.372537 2.47426
rclavicle 1.61513e-014 -1.83876e-015
rhumerus -61.7925 41.044 -92.8135
rradius 125.013
rwrist -51.511
rhand 45.4422 5.97089
rfingers 7.12502
rthumb 66.7224 1.95072
lclavicle 1.61513e-014 -1.83876e-015
lhumerus -4.03777 -12.3058 -337.477
lradius 19.5607
lwrist 325.497
lhand -8.67494 16.1358
lfingers 7.12502
lthumb 17.2593 45.3893
rfemur -59.5649 -7.06558 14.6121
rtibia 48.4054
rfoot -11.5298 -4.13925
rtoes -28.5014
lfemur -57.5291 3.32468 -19.4587
ltibia 42.2078
lfoot -12.3882 -0.506333
ltoes -18.4401
3129
root -2.04836 16.8723 0.0987456 -1050.51 94.6954 -1079.67
lowerback 31.3093 -0.791012 -0.632944
upperback 6.73987 -0.401601 1.12758
thorax -9.51787 0.104307 1.75746
lowerneck -5.09795 -0.615851 -1.77374
upperneck -17.9742 0.827679 7.01055
head -4.56743 0.481489 2.43268
rclavicle -3.83344e-014 -5.49422e-014
rhumerus -61.7422 40.7951 -92.8163
rradius 124.959
rwrist -51.4863
rhand 45.6285 5.96937
rfingers 7.12502
rthumb 66.8627 2.23484
lclavicle -3.83344e-014 -5.49422e-014
lhumerus -1.36897 -10.8531 -338.89
lradius 18.9415
lwrist 322.962
lhand -8.47266 16.448
lfingers 7.12502
lthumb 17.454 45.6845
rfemur -59.2243 -6.7096 14.7232
rtibia 47.804
rfoot -12.4786 -4.46214
rtoes -28.2841
lfemur -57.7943 3.81796 -19.5361
ltibia 42.7348
lfoot -12.5144 -0.625692
ltoes -18.0656
3130
root -2.05885 16.8525 0.13071 -1049.9 94.2969 -1079.03
lowerback 31.3775 -0.896738 -0.712127
upperback 6.73838 -0.570824 1.04894
thorax -9.54589 0.0268491 1.77948
lowerneck -5.12854 -0.467361 -1.74971
upperneck -17.9243 1.02722 7.00231
head -4.55651 0.579903 2.42098
rclavicle -1.51573e-014 -3.56818e-014
rhumerus -61.7734 40.5085 -92.8842
rradius 124.868
rwrist -51.3723
rhand 45.9576 5.91726
rfingers 7.12502
rthumb 67.1091 2.69639
lclavicle -1.51573e-014 -3.56818e-014
lhumerus 1.20523 -8.97892 -340.002
lradius 18.3869
lwrist 320.277
lhand -8.48783 16.9464
lfingers 7.12502
lthumb 17.4394 46.1841
rfemur -58.8483 -6.3951 14.8919
rtibia 47.1476
rfoot -13.5008 -4.9447
rtoes -28.1391
lfemur -58.0967 4.29342 -19.6174
ltibia 43.2996
lfoot -12.6757 -0.638478
ltoes -18.3948
3131
root -2.06919 16.8277 0.165877 -1047.98 93.9657 -1077.03
lowerback 31.424 -0.995584 -0.715838
upperback 6.76527 -0.703365 0.986218
thorax -9.53322 -0.0348614 1.7612
lowerneck -5.12672 -0.337954 -1.70831
upperneck -17.9076 1.20034 6.97903
head -4.55985 0.663954 2.40246
rclavicle 2.44505e-014 1.98288e-014
rhumerus -61.7214 40.1058 -92.8871
rradius 124.797
rwrist -51.2134
rhand 46.2015 5.94833
rfingers 7.12502
rthumb 67.2904 3.11547
lclavicle 2.44505e-014 1.98288e-014
lhumerus 3.85807 -7.09057 -340.931
lradius 17.8531
lwrist 317.783
lhand -8.7087 17.7719
lfingers 7.12502
lthumb 17.2268 47.0283
rfemur -58.4119 -6.06403 15.1978
rtibia 46.4762
rfoot -14.587 -5.56805
rtoes -27.9263
lfemur -58.3914 4.85219 -19.615
ltibia 43.8655
lfoot -12.7702 -0.803401
ltoes -17.8659
3132
root -2.07904 16.8059 0.203003 -1047.22 93.5452 -1076.21
lowerback 31.4214 -1.00387 -0.965029
upperback 6.80168 -0.79783 0.936029
thorax -9.48251 -0.074066 1.88443
lowerneck -5.28594 -0.186483 -1.76455
upperneck -17.7725 1.40877 7.02414
head -4.50204 0.77398 2.42065
rclavicle -2.92213e-014 -3.19049e-014
rhumerus -61.4751 39.708 -92.6048
rradius 124.796
rwrist -51.2455
rhand 46.4059 5.89595
rfingers 7.12502
rthumb 67.4416 3.39327
lclavicle -2.92213e-014 -3.19049e-014
lhumerus 6.56455 -5.98549 -341.805
lradius 17.3464
lwrist 316.268
lhand -9.40023 18.9751
lfingers 7.12502
lthumb 16.5611 48.2884
rfemur -58.0429 -5.68892 15.3301
rtibia 45.9337
rfoot -15.4555 -6.31324
rtoes -29.5168
lfemur -58.6538 5.45626 -19.7836
ltibia 44.3796
lfoot -12.8063 -0.972211
ltoes -17.9781
